<?xml version="1.0" encoding="UTF-8"?>
<!--Generator: Apple Native CoreSVG 341-->
<!DOCTYPE svg
PUBLIC "-//W3C//DTD SVG 1.1//EN"
       "http://www.w3.org/Graphics/SVG/1.1/DTD/svg11.dtd">
<svg version="1.1" xmlns="http://www.w3.org/2000/svg" xmlns:xlink="http://www.w3.org/1999/xlink" viewBox="0 0 996.094 996.582">
 <g>
  <rect height="996.582" opacity="0" width="996.094" x="0" y="0"/>
  <path d="M498.047 996.094C772.949 996.094 996.094 772.949 996.094 498.047C996.094 223.145 772.949 0 498.047 0C223.145 0 0 223.145 0 498.047C0 772.949 223.145 996.094 498.047 996.094ZM498.047 913.086C268.555 913.086 83.0078 727.539 83.0078 498.047C83.0078 268.555 268.555 83.0078 498.047 83.0078C727.539 83.0078 913.086 268.555 913.086 498.047C913.086 727.539 727.539 913.086 498.047 913.086Z" fill="white" fill-opacity="0.85"/>
  <path d="M412.598 771.484L611.328 771.484C631.348 771.484 646.973 756.836 646.973 736.816C646.973 717.773 631.348 702.637 611.328 702.637L550.781 702.637L550.781 454.102C550.781 427.734 537.598 410.156 512.695 410.156L420.898 410.156C400.879 410.156 385.254 425.293 385.254 444.336C385.254 464.355 400.879 479.004 420.898 479.004L473.145 479.004L473.145 702.637L412.598 702.637C392.578 702.637 376.953 717.773 376.953 736.816C376.953 756.836 392.578 771.484 412.598 771.484ZM493.652 329.102C529.297 329.102 557.129 300.781 557.129 265.137C557.129 229.492 529.297 201.172 493.652 201.172C458.496 201.172 430.176 229.492 430.176 265.137C430.176 300.781 458.496 329.102 493.652 329.102Z" fill="white" fill-opacity="0.85"/>
 </g>
</svg>
