<?xml version="1.0" encoding="UTF-8"?>
<!--Generator: Apple Native CoreSVG 341-->
<!DOCTYPE svg
PUBLIC "-//W3C//DTD SVG 1.1//EN"
       "http://www.w3.org/Graphics/SVG/1.1/DTD/svg11.dtd">
<svg version="1.1" xmlns="http://www.w3.org/2000/svg" xmlns:xlink="http://www.w3.org/1999/xlink" viewBox="0 0 1151.37 898.926">
 <g>
  <rect height="898.926" opacity="0" width="1151.37" x="0" y="0"/>
  <path d="M1151.37 151.367L1151.37 748.047C1151.37 848.633 1100.59 898.926 998.047 898.926L153.32 898.926C51.2695 898.926 0 848.633 0 748.047L0 151.367C0 50.7812 51.2695 0 153.32 0L998.047 0C1100.59 0 1151.37 50.7812 1151.37 151.367ZM691.895 461.914L458.496 668.945L365.234 584.961C343.75 564.941 318.848 555.176 294.922 555.176C273.438 555.176 250 564.941 228.516 583.984L78.6133 714.844L78.6133 744.629C78.6133 792.48 106.934 820.801 154.297 820.801L997.559 820.801C1043.95 820.801 1072.75 792.48 1072.75 745.605L1072.75 670.41L848.145 462.402C825.195 440.918 797.363 430.664 770.508 430.664C742.676 430.664 715.82 440.43 691.895 461.914ZM245.605 341.309C245.605 407.715 299.805 461.914 366.211 461.914C432.129 461.914 486.328 407.715 486.328 341.309C486.328 275.391 432.129 220.703 366.211 220.703C299.805 220.703 245.605 275.391 245.605 341.309Z" fill="white" fill-opacity="0.85"/>
 </g>
</svg>
