<?xml version="1.0" encoding="UTF-8"?>
<!--Generator: Apple Native CoreSVG 341-->
<!DOCTYPE svg
PUBLIC "-//W3C//DTD SVG 1.1//EN"
       "http://www.w3.org/Graphics/SVG/1.1/DTD/svg11.dtd">
<svg version="1.1" xmlns="http://www.w3.org/2000/svg" xmlns:xlink="http://www.w3.org/1999/xlink" viewBox="0 0 866.699 1341.31">
 <g>
  <rect height="1341.31" opacity="0" width="866.699" x="0" y="0"/>
  <path d="M866.699 592.773L866.699 968.75C866.699 1100.1 793.457 1172.85 662.109 1172.85L204.102 1172.85C72.7539 1172.85 0 1100.1 0 968.75L0 592.773C0 461.914 72.7539 388.672 204.102 388.672L302.734 388.672L302.734 467.285L204.102 467.285C124.023 467.285 78.6133 512.695 78.6133 592.773L78.6133 968.75C78.6133 1049.32 124.023 1094.24 204.102 1094.24L662.109 1094.24C742.676 1094.24 788.086 1049.32 788.086 968.75L788.086 592.773C788.086 512.695 742.676 467.285 662.109 467.285L563.477 467.285L563.477 388.672L662.109 388.672C793.457 388.672 866.699 461.914 866.699 592.773Z" fill="white" fill-opacity="0.85"/>
  <path d="M267.578 304.199C276.855 304.199 287.598 300.293 294.434 292.48L370.117 211.914L433.105 145.02L496.582 211.914L571.777 292.48C578.613 300.293 588.867 304.199 598.145 304.199C618.652 304.199 633.789 290.039 633.789 270.02C633.789 259.277 629.883 251.465 622.559 244.141L461.426 88.8672C451.66 79.1016 443.359 76.1719 433.105 76.1719C423.34 76.1719 415.039 79.1016 404.785 88.8672L244.141 244.141C236.816 251.465 232.422 259.277 232.422 270.02C232.422 290.039 247.07 304.199 267.578 304.199ZM433.105 790.527C454.102 790.527 472.168 773.438 472.168 752.93L472.168 256.348L466.309 124.512C465.332 106.934 451.172 91.7969 433.105 91.7969C415.527 91.7969 401.367 106.934 400.391 124.512L394.531 256.348L394.531 752.93C394.531 773.438 412.109 790.527 433.105 790.527Z" fill="white" fill-opacity="0.85"/>
 </g>
</svg>
